<svg width="214" height="42" viewBox="0 0 214 42" fill="none" xmlns="http://www.w3.org/2000/svg">
<g clip-path="url(#clip0_1912_4341)">
<path d="M20.9985 0C9.40154 0 0 9.40154 0 20.9968C0 32.5925 9.40154 41.9988 20.9985 41.9988C32.5937 41.9988 42 32.5925 42 20.9968C42 9.40154 32.5937 0 20.9985 0ZM18.0193 29.9304L16.4714 34.5203C10.6539 32.5583 6.74583 27.0867 6.74583 20.9045C6.74583 14.7152 10.6615 9.24168 16.4889 7.28498L18.0312 11.8776C14.1783 13.1711 11.5902 16.7986 11.5902 20.9045C11.5902 25.006 14.1741 28.6332 18.0193 29.9304ZM25.2424 34.613L23.7919 29.991C27.7502 28.7487 30.4098 25.097 30.4098 20.9045C30.4098 16.7646 27.7926 13.1275 23.8969 11.8545L25.4023 7.24951C31.295 9.17542 35.2541 14.6632 35.2541 20.9045C35.2541 27.2249 31.2306 32.7339 25.2424 34.613Z" fill="#D9D9D9"/>
<path d="M210.292 24.4819L212.587 27.2314C210.241 29.7034 207.265 30.3845 204.894 30.3845C202.649 30.3845 200.958 30.0314 199.571 29.325C196.519 27.8116 194.98 24.7342 194.98 21.0008C194.98 15.3252 198.814 11.1883 204.464 11.1883C210.72 11.1883 213.773 15.8802 213.369 21.9846L199.042 22.0098C199.117 23.5485 200 25.0116 201.236 25.7431C202.27 26.3738 203.481 26.7017 205.146 26.7017C206.886 26.7017 208.702 26.0963 210.292 24.4819ZM199.092 18.7053H209.207C208.954 16.4855 207.139 14.6189 204.212 14.6189C201.236 14.6189 199.445 16.6873 199.092 18.7053ZM102.934 29.9052H108.106L99.9826 20.4964L107.979 11.6424H102.883L96.7791 18.7305H94.9884V11.6424H91.0281V29.9052H94.9884V22.6405H96.8049L102.934 29.9052ZM119.759 14.9216C116.455 14.9216 114.261 17.4946 114.261 20.7738C114.261 24.0531 116.455 26.626 119.759 26.626C123.14 26.626 125.233 24.1035 125.233 20.7738C125.233 17.5198 123.19 14.9216 119.759 14.9216ZM120.44 11.1883C125.586 11.1883 129.37 15.2243 129.37 20.7738C129.37 26.2476 125.611 30.3845 120.44 30.3845C117.918 30.3845 115.95 29.5268 114.538 27.9881V37.498H110.552V11.6424H114.437V13.837C115.95 12.0208 117.918 11.1883 120.44 11.1883ZM172.429 11.6424H156.083V15.3H162.264V29.9052H166.249V15.3H172.429V11.6424ZM88.2786 11.6424H71.9328V15.3H78.1129V29.9052H82.0985V15.3H88.2786V11.6424ZM67.0896 20.7738C67.0896 17.3684 64.668 14.8459 61.3888 14.8459C58.1348 14.8459 55.688 17.2928 55.688 20.7738C55.688 24.2044 58.0591 26.7269 61.3888 26.7269C64.6428 26.7269 67.0896 24.2296 67.0896 20.7738ZM51.6016 20.7738C51.6016 15.3 55.8393 11.1883 61.3888 11.1883C66.9383 11.1883 71.176 15.3 71.176 20.7738C71.176 26.2476 66.9383 30.3845 61.3888 30.3845C55.8393 30.3845 51.6016 26.2476 51.6016 20.7738ZM191.752 11.6424V29.9052H187.842V18.1252L178.281 29.9052H175.153V11.6424H179.063V23.3972L188.648 11.6424H191.752ZM153.359 29.9052H149.398V11.6424H153.359V29.9052ZM143.219 23.6747C143.219 22.0351 142.084 20.8999 140.519 20.8999H136.508V26.5251H140.519C142.084 26.5251 143.219 25.3143 143.219 23.6747ZM147.153 23.6747C147.153 27.3323 144.505 29.9052 140.645 29.9052H132.598V11.6424H136.534V17.545H140.998C144.782 17.545 147.153 19.9919 147.153 23.6747Z" fill="#D9D9D9"/>
</g>
<defs>
<clipPath id="clip0_1912_4341">
<rect width="213.818" height="42" fill="white"/>
</clipPath>
</defs>
</svg>
