<svg width="110" height="48" viewBox="0 0 110 48" fill="none" xmlns="http://www.w3.org/2000/svg">
<path d="M28.0442 0.638784V9.80989H10.0161V47.3612H0.144531V0.638784H28.0442Z" fill="#D9D9D9"/>
<path d="M68.094 17.5665H58.1227C57.9897 16.3954 57.7172 15.3384 57.305 14.3954C56.8929 13.4525 56.3478 12.6464 55.6698 11.9772C54.9917 11.308 54.1874 10.7985 53.2567 10.4487C52.3393 10.0836 51.3223 9.90114 50.2055 9.90114C48.2245 9.90114 46.5161 10.4563 45.0802 11.5665C43.6576 12.6768 42.5608 14.2814 41.7897 16.3802C41.0319 18.4791 40.653 21.019 40.653 24C40.653 27.1027 41.0385 29.7034 41.8096 31.8023C42.594 33.8859 43.6909 35.4601 45.1002 36.5247C46.5227 37.5741 48.2046 38.0989 50.1456 38.0989C51.2358 38.0989 52.2263 37.9392 53.1171 37.6198C54.0212 37.3004 54.8122 36.8365 55.4903 36.2281C56.1816 35.6046 56.7467 34.8517 57.1854 33.9696C57.6374 33.0722 57.9499 32.0608 58.1227 30.9354L68.094 31.0038C67.9212 33.0722 67.396 35.1103 66.5185 37.1179C65.6544 39.1255 64.4644 40.9582 62.9488 42.616C61.4332 44.2586 59.5852 45.5665 57.4048 46.5399C55.2377 47.5133 52.7515 48 49.9462 48C46.2502 48 42.9397 47.0722 40.0148 45.2167C37.1032 43.346 34.8031 40.6236 33.1147 37.0494C31.4262 33.4753 30.5819 29.1255 30.5819 24C30.5819 18.8593 31.4395 14.5019 33.1545 10.9278C34.8696 7.35361 37.1896 4.63878 40.1145 2.78327C43.0394 0.927757 46.3167 0 49.9462 0C52.4191 0 54.7059 0.395438 56.8065 1.18631C58.9071 1.96198 60.7551 3.10266 62.3505 4.60836C63.9459 6.09886 65.2422 7.93156 66.2393 10.1065C67.2365 12.2814 67.8547 14.7681 68.094 17.5665Z" fill="#D9D9D9"/>
<path d="M109.859 0.638784V47.3612H100.127V9.673H84.9704V47.3612H75.2384V0.638784H109.859Z" fill="#D9D9D9"/>
</svg>
