<svg width="133" height="72" viewBox="0 0 133 72" fill="none" xmlns="http://www.w3.org/2000/svg">
<g clip-path="url(#clip0_1912_4342)">
<path fill-rule="evenodd" clip-rule="evenodd" d="M39.0447 24.3488C38.989 26.8989 38.6837 29.5922 38.2919 31.1974C38.4321 28.4268 38.0984 24.5178 37.4567 21.4629C36.8164 18.4077 35.0018 13.3159 33.5549 10.9495C32.2182 13.1979 30.5714 17.6097 29.7068 21.435C28.8399 25.2661 28.8142 29.8953 28.8142 31.2861C28.5859 30.1117 28.0087 25.9419 28.1732 21.7425C28.3093 18.2794 29.1229 14.7252 29.5694 13.087C31.2695 7.61881 33.1949 4.12914 33.5549 3.57805C33.9156 4.12914 36.3419 8.43134 37.5979 12.9503C38.8485 17.4726 39.1001 21.7963 39.0447 24.3488ZM33.585 43.8657C32.8285 42.4534 31.6572 39.7645 31.5464 35.6111C31.5174 31.5912 33.1345 28.1422 33.6073 27.4275C34.0267 28.1422 35.4232 31.147 35.5877 35.2486C35.7002 39.2651 34.3628 42.4252 33.585 43.8657ZM39.4895 13.004C37.9592 6.32207 34.1142 0.889808 33.585 0C32.7444 1.24768 29.6768 6.04216 28.1185 11.3689C26.4174 17.3072 26.1688 22.5725 26.7547 27.7618C27.338 32.9444 29.5417 38.2715 29.5417 38.2715C30.7119 41.0673 32.4657 44.0606 33.6073 45.5294C35.2811 43.3637 39.1308 36.9116 40.3271 28.4806C40.9951 23.7956 41.0241 19.6914 39.4895 13.004Z" fill="#D9D9D9"/>
<path fill-rule="evenodd" clip-rule="evenodd" d="M36.3422 47.1146H24.7904V54.8947C24.8014 54.8839 24.8087 54.8735 24.8208 54.8624C27.5421 52.1316 31.9535 52.1316 34.6745 54.8624C37.3955 57.5967 37.3955 62.0268 34.6745 64.757C34.6648 64.7675 34.6521 64.7785 34.6418 64.7896C34.6418 64.7936 34.6418 64.7936 34.6384 64.7936C34.6297 64.8034 34.612 64.8192 34.6 64.8289C31.8863 67.5336 28.3377 68.8908 24.7904 68.8908C21.2287 68.8908 17.6653 67.5238 14.9453 64.7997C10.1577 59.9892 9.5879 52.5468 13.2415 47.1146C13.7341 46.3791 14.2992 45.6812 14.9453 45.0363C17.6653 42.3055 21.2287 40.9429 24.7904 40.9429V22.2353C11.1024 22.2353 0 33.3797 0 47.1146C0 60.8576 11.1024 72 24.7904 72C31.9328 72 38.3613 68.967 42.8824 64.1216V47.1146H36.3422Z" fill="#D9D9D9"/>
<path fill-rule="evenodd" clip-rule="evenodd" d="M45.5312 26.4706H53.4724V29.1671H49.6929V48.1765H45.5312V26.4706Z" fill="#D9D9D9"/>
<path fill-rule="evenodd" clip-rule="evenodd" d="M53.4688 48.1765H57.6279L58.0268 42.4089H60.031L60.4252 48.1765H64.5864L62.3702 26.4706H55.6867L53.4688 48.1765ZM58.1768 40.0204L58.9069 29.1648H59.1476L59.876 40.0204H58.1768Z" fill="#D9D9D9"/>
<path fill-rule="evenodd" clip-rule="evenodd" d="M70.8256 40.5769V44.6623C70.8256 45.2232 71.238 45.3772 71.4711 45.3772C71.8569 45.3772 72.1201 45.0368 72.1201 44.6623V39.6173C72.1201 38.9327 72.0025 38.1931 70.4709 38.1931H68.7955V35.8044H70.5286C71.7065 35.8044 72.1201 35.5209 72.1201 34.1898V29.876C72.1201 29.5039 71.8569 29.1678 71.4711 29.1678C71.238 29.1678 70.8256 29.3222 70.8256 29.876V33.4162H66.707V30.3489C66.707 28.832 66.8847 26.4706 69.7662 26.4706H73.1799C76.0634 26.4706 76.2364 28.832 76.2364 30.3489V33.823C76.2364 36.1791 74.68 36.8274 73.4442 36.7647V36.9831C76.2063 36.9174 76.2364 39.1525 76.2364 39.9307V44.2968C76.2364 45.8177 76.0634 48.1765 73.1799 48.1765H69.7662C66.8847 48.1765 66.707 45.8177 66.707 44.2968V40.5769H70.8256Z" fill="#D9D9D9"/>
<path fill-rule="evenodd" clip-rule="evenodd" d="M79.4102 26.4706H88.9396V48.1765H84.8219V29.1671H83.5288V48.1765H79.4102V26.4706Z" fill="#D9D9D9"/>
<path fill-rule="evenodd" clip-rule="evenodd" d="M91.5898 48.1765H95.7087V40.7957H98.0581C100.944 40.7957 101.119 38.4419 101.119 36.9174V30.3489C101.119 28.832 100.944 26.4706 98.0581 26.4706H91.5898V48.1765ZM95.7087 38.4045V29.1671H96.2296C96.6772 29.1671 96.9975 29.5679 96.9975 30.2465V37.3255C96.9975 38.0061 96.6772 38.4045 96.2296 38.4045H95.7087Z" fill="#D9D9D9"/>
<path fill-rule="evenodd" clip-rule="evenodd" d="M104.293 44.2968C104.293 45.8177 104.465 48.1765 107.348 48.1765H110.761C113.646 48.1765 113.822 45.8177 113.822 44.2968V30.3489C113.822 28.832 113.646 26.4706 110.761 26.4706H107.348C104.465 26.4706 104.293 28.832 104.293 30.3489V44.2968ZM109.708 44.6623C109.708 45.0368 109.44 45.3772 109.059 45.3772C108.82 45.3772 108.407 45.2232 108.407 44.6623V29.876C108.407 29.3222 108.82 29.1671 109.059 29.1671C109.44 29.1671 109.708 29.5039 109.708 29.876V44.6623Z" fill="#D9D9D9"/>
<path fill-rule="evenodd" clip-rule="evenodd" d="M127.413 26.4706H132.881V48.1765H128.673V34.5649H128.525L126.357 48.1765H122.992L120.828 34.5649H120.68V48.1765H116.469V26.4706H121.938L124.673 41.725L127.413 26.4706Z" fill="#D9D9D9"/>
<path fill-rule="evenodd" clip-rule="evenodd" d="M45.5508 64.3067H132.886V51.353H45.5508V64.3067ZM50.4031 54L51.0437 57.2191C51.1345 57.6509 51.1952 58.2819 51.2525 58.8773V58.8773C51.2817 59.1809 51.31 59.4753 51.341 59.7293H51.3639C51.3974 59.467 51.4308 59.137 51.4652 58.7963L51.4652 58.7962V58.7962C51.5252 58.2031 51.5885 57.5773 51.6613 57.2191L52.3015 54H55.0584V61.9412H53.1707V59.1545C53.1707 58.3915 53.2283 56.3553 53.2739 55.6922H53.2624L52.0386 61.9412H50.6661L49.4426 55.6922H49.4308C49.4651 56.2452 49.5339 58.07 49.5339 59.1434V61.9412H47.6466V54H50.4031ZM61.4126 54H57.1773V61.9412H61.4126V60.4375H59.0001V58.5686H61.1598V57.0642H59.0001V55.5044H61.4126V54ZM68.6587 54V57.1633L69.9679 54H72.0017L70.2814 57.5063L72.0017 61.9412H70.0326L69.1667 59.1763L68.6587 60.0941V61.9412H66.8744V60.0941L66.3657 59.1763L65.5004 61.9412H63.5311L65.2513 57.5063L63.5311 54H65.5652L66.8744 57.1633V54H68.6587ZM75.9314 57.4176H75.5749V55.4264H75.8969C76.4709 55.4264 76.8958 55.6146 76.8958 56.4C76.8958 57.1855 76.4253 57.4176 75.9314 57.4176ZM73.5886 61.9412H75.5749V58.8447H76.4709C77.6425 58.8447 78.8828 58.3804 78.8828 56.4225C78.8828 54.3981 77.6195 54 76.4709 54H73.5886V61.9412ZM80.4732 54H84.7085V55.5044H82.2958V57.0642H84.4557V58.5686H82.2958V60.4375H84.7085V61.9412H80.4732V54ZM91.5892 55.504V54H87.3539V61.9412H89.1765V55.504H91.5892ZM95.4509 54V55.9683C95.4509 56.4609 95.377 57.08 95.3051 57.6829L95.305 57.6829V57.683L95.305 57.6831C95.2493 58.15 95.1948 58.6072 95.1766 58.9885H95.1868L96.7289 54H98.4724V61.9412H96.7289V60.0941C96.7289 59.5432 96.8351 58.8073 96.933 58.1287L96.933 58.1287L96.933 58.1286L96.933 58.1284C96.9865 57.7581 97.0374 57.4049 97.0674 57.1082H97.0564L95.4826 61.9412H93.7077V54H95.4509ZM102.027 59.7302V55.6249C102.027 55.1628 102.367 54.9594 102.709 54.9594C103.038 54.9594 103.39 55.1628 103.39 55.6249V59.7302C103.39 60.2152 103.038 60.4526 102.709 60.4526C102.367 60.4526 102.027 60.2152 102.027 59.7302ZM105.356 59.3914V55.7602C105.356 54.4969 104.572 53.4707 102.72 53.4707C100.868 53.4707 100.061 54.4743 100.061 55.7489V59.3914C100.061 61.0051 100.891 61.9413 102.709 61.9413C104.549 61.9413 105.356 61.0051 105.356 59.3914ZM109.468 57.0642H110.772V54H112.767V61.9412H110.772V58.5686H109.468V61.9412H107.473V54H109.468V57.0642ZM119.12 55.5044V54H114.884V61.9412H116.707V55.5044H119.12ZM122.499 58.9223L121.986 55.4264H121.975L121.473 58.9223H122.499ZM123.169 54L124.942 61.9412H123.046L122.756 60.3488H121.283L121.038 61.9412H119.119L120.859 54H123.169ZM128.519 53.4707C127.079 53.4707 126 54.4408 126 56.1216H127.845C127.845 55.2865 128.008 54.9258 128.519 54.9258C128.994 54.9258 129.192 55.3091 129.192 55.9188C129.192 56.4932 128.878 56.8098 128.589 56.8098H128.112V58.2635H128.402C129.041 58.2635 129.285 58.5687 129.285 59.324C129.285 60.2266 129.076 60.4862 128.553 60.4862C128.112 60.4862 127.845 60.2266 127.845 59.324H126C126 61.4107 127.393 61.9413 128.635 61.9413C130.225 61.9413 131.294 61.1853 131.294 59.5836C131.294 58.1292 130.69 57.7908 129.842 57.4863H129.819C130.666 57.1249 131.003 56.6172 131.003 55.6136C131.003 54.4743 130.109 53.4707 128.519 53.4707Z" fill="#D9D9D9"/>
</g>
<defs>
<clipPath id="clip0_1912_4342">
<rect width="132.883" height="72" fill="white"/>
</clipPath>
</defs>
</svg>
