<svg width="183" height="56" viewBox="0 0 183 56" fill="none" xmlns="http://www.w3.org/2000/svg">
<mask id="mask0_1912_4343" style="mask-type:luminance" maskUnits="userSpaceOnUse" x="0" y="0" width="182" height="56">
<path d="M181.497 0.971848H0.015625V55.2612H181.497V0.971848Z" fill="white"/>
</mask>
<g mask="url(#mask0_1912_4343)">
<path fill-rule="evenodd" clip-rule="evenodd" d="M102.874 47.4507C102.874 47.3077 102.853 47.143 102.817 46.9456C102.78 46.7503 102.706 46.5909 102.616 46.4523C102.498 46.2842 102.348 46.1535 102.158 46.0685C101.972 45.9802 101.736 45.9327 101.459 45.9327C101.036 45.9327 100.639 46.0877 100.28 46.3929C99.9194 46.7034 99.5993 47.1127 99.3201 47.6236C99.0466 48.1268 98.8316 48.7153 98.6816 49.3871C98.5244 50.0564 98.4442 50.7411 98.4442 51.4365C98.4427 51.7555 98.4702 52.0504 98.5145 52.3258C98.5642 52.5927 98.6449 52.822 98.7529 53.013C98.8677 53.2159 99.0264 53.3673 99.225 53.4826C99.4204 53.59 99.6645 53.6444 99.9628 53.6444C100.269 53.6444 100.562 53.5569 100.843 53.3786C101.125 53.2012 101.386 52.9815 101.628 52.724L102.874 47.4507ZM120.692 53.3553L120.476 54.2271C119.839 54.4816 119.325 54.6728 118.942 54.8073C118.561 54.936 118.118 55.0053 117.612 55.0036C116.844 55.0036 116.241 54.8087 115.816 54.42C115.391 54.0369 115.179 53.5586 115.179 52.9898C115.179 52.8325 115.186 52.6331 115.201 52.3932C115.219 52.1484 115.27 51.8505 115.363 51.486L116.064 48.9031C116.138 48.626 116.194 48.3726 116.227 48.1511C116.258 47.9276 116.278 47.7414 116.278 47.5984C116.28 47.292 116.204 47.0447 116.058 46.8729C115.906 46.6972 115.654 46.6109 115.299 46.6098C115.078 46.6098 114.767 46.6932 114.36 46.8645C113.952 47.0392 113.494 47.3567 112.985 47.8237L111.38 54.8332L108.158 54.829L109.545 48.8533C109.584 48.6765 109.636 48.4382 109.698 48.1488C109.758 47.8549 109.792 47.6132 109.792 47.4217C109.792 47.0523 109.717 46.7978 109.563 46.6599C109.411 46.5195 109.132 46.4498 108.728 46.4489C108.526 46.4489 108.311 46.4792 108.099 46.5457C107.876 46.6064 107.693 46.6694 107.537 46.7286L107.748 45.8554C108.278 45.6434 108.777 45.4582 109.262 45.3061C109.736 45.1552 110.192 45.0825 110.619 45.0825C111.384 45.0835 111.958 45.2316 112.331 45.5343C112.711 45.8349 112.96 46.2573 113.084 46.8013H113.152C113.789 46.2226 114.442 45.7777 115.121 45.4582C115.796 45.1381 116.516 44.9778 117.277 44.9778C118 44.9805 118.565 45.1775 118.968 45.5743C119.37 45.9691 119.576 46.4489 119.574 47.011C119.574 47.1622 119.558 47.3691 119.54 47.64C119.517 47.9096 119.462 48.1929 119.375 48.4962L118.636 51.2255C118.571 51.454 118.508 51.7111 118.458 52.0054C118.407 52.2955 118.382 52.5144 118.382 52.6624C118.382 53.0385 118.458 53.2924 118.626 53.4323C118.792 53.5659 119.078 53.6371 119.496 53.6381C119.69 53.6381 119.912 53.6004 120.16 53.5343C120.406 53.4651 120.583 53.406 120.692 53.3553ZM125.637 55.168C124.146 55.1666 122.99 54.7891 122.154 54.0461C121.323 53.299 120.907 52.2783 120.908 50.9749C120.908 50.1933 121.04 49.4496 121.307 48.7482C121.574 48.0454 121.983 47.4072 122.534 46.8281C123.043 46.2867 123.706 45.8443 124.506 45.5026C125.309 45.1603 126.208 44.9882 127.2 44.9889C128.344 44.9916 129.22 45.2037 129.823 45.6228C130.431 46.0459 130.733 46.6256 130.732 47.3612C130.732 47.5647 130.695 47.7873 130.633 48.0298C130.57 48.2817 130.474 48.4861 130.341 48.6523C130.179 48.8583 130.002 49.0193 129.81 49.1286C129.621 49.242 129.336 49.293 128.946 49.293C128.447 49.2919 128.052 49.17 127.771 48.9155C127.493 48.6681 127.348 48.4099 127.348 48.1373C127.349 47.8131 127.416 47.4919 127.555 47.177C127.694 46.8572 127.866 46.5242 128.07 46.1746C128.014 46.1061 127.895 46.0166 127.716 45.9126C127.54 45.807 127.307 45.7571 127.021 45.7571C126.261 45.7571 125.637 46.2142 125.134 47.1285C124.637 48.0471 124.387 49.1819 124.386 50.5326C124.385 51.5633 124.573 52.3413 124.952 52.8731C125.331 53.4035 125.866 53.6699 126.566 53.6712C127.28 53.6712 127.871 53.5353 128.354 53.2609C128.825 52.9831 129.316 52.517 129.817 51.8505L130.512 52.4392C129.979 53.2618 129.273 53.9248 128.404 54.42C127.525 54.9164 126.606 55.1696 125.637 55.168ZM139.357 47.9465C139.357 47.189 139.226 46.6296 138.973 46.2731C138.713 45.9171 138.347 45.7393 137.859 45.7379C137.362 45.7379 136.907 45.9352 136.491 46.3337C136.078 46.7312 135.736 47.3173 135.478 48.0858C135.253 48.7264 135.09 49.4219 134.993 50.1671C134.892 50.9164 134.848 51.5864 134.847 52.173C134.847 52.9589 134.974 53.526 135.232 53.8807C135.489 54.2313 135.862 54.41 136.358 54.41C136.887 54.41 137.346 54.1962 137.738 53.7597C138.125 53.3295 138.435 52.7926 138.659 52.1595C138.887 51.537 139.062 50.8538 139.175 50.0965C139.294 49.3381 139.356 48.6247 139.357 47.9465ZM142.772 49.0452C142.771 49.8591 142.615 50.6413 142.303 51.3866C141.994 52.1286 141.551 52.7766 140.981 53.3259C140.366 53.9168 139.645 54.3693 138.821 54.6915C137.991 55.0089 137.063 55.168 136.035 55.167C134.658 55.1666 133.541 54.7968 132.696 54.06C131.847 53.3259 131.423 52.3241 131.423 51.0523C131.426 50.195 131.591 49.3935 131.906 48.6537C132.233 47.9192 132.679 47.2749 133.254 46.7249C133.826 46.1872 134.525 45.7581 135.357 45.4511C136.186 45.1346 137.083 44.9805 138.046 44.9805C139.511 44.982 140.663 45.339 141.512 46.058C142.354 46.7734 142.774 47.7666 142.772 49.0452ZM155.059 46.5201C155.058 47.6556 154.927 48.7492 154.661 49.8072C154.399 50.8592 153.997 51.7751 153.462 52.5533C152.877 53.3941 152.166 54.0421 151.329 54.4975C150.488 54.9525 149.489 55.1806 148.327 55.1796C146.924 55.1786 145.81 54.8037 144.984 54.0617C144.16 53.3114 143.748 52.2817 143.749 50.9689C143.752 49.3128 144.313 47.9096 145.446 46.7659C146.572 45.6217 148.023 45.0475 149.799 45.0488C150.258 45.0488 150.627 45.0852 150.907 45.1538C151.187 45.2193 151.461 45.3269 151.718 45.4703C151.609 44.0297 151.268 42.9275 150.701 42.1553C150.13 41.3875 149.435 41.0003 148.624 40.9987C148.149 40.9987 147.709 41.087 147.32 41.2653C146.931 41.4445 146.592 41.6323 146.313 41.8322L145.866 41.2417C146.412 40.7684 146.986 40.416 147.597 40.1822C148.204 39.9499 148.88 39.8357 149.616 39.8357C151.313 39.8374 152.645 40.4201 153.609 41.5763C154.577 42.7396 155.061 44.3848 155.059 46.5201ZM150.927 51.9181C151.182 51.187 151.386 50.3872 151.527 49.5137C151.668 48.6463 151.736 47.8115 151.745 47.0158C151.572 46.6135 151.355 46.3119 151.107 46.1172C150.851 45.918 150.53 45.8201 150.136 45.8201C149.344 45.8201 148.653 46.3786 148.063 47.5068C147.466 48.6331 147.171 49.961 147.169 51.4843C147.168 52.4608 147.277 53.1997 147.494 53.6868C147.718 54.1774 148.1 54.4219 148.641 54.4219C149.126 54.4236 149.558 54.1945 149.943 53.7345C150.328 53.2738 150.653 52.6694 150.927 51.9181ZM180.147 46.6996C180.147 46.9615 180.118 47.2288 180.069 47.5005C180.014 47.7732 179.971 47.9787 179.929 48.1195L179.064 51.2944C179.003 51.5112 178.949 51.7597 178.896 52.0443C178.842 52.3352 178.817 52.5651 178.817 52.7321C178.816 53.1091 178.897 53.363 179.061 53.4996C179.224 53.6367 179.51 53.705 179.923 53.7064C180.12 53.7064 180.338 53.6712 180.584 53.6056C180.83 53.5327 181.007 53.4747 181.118 53.4267L180.904 54.2953C180.262 54.5508 179.752 54.7405 179.369 54.874C178.988 55.0063 178.545 55.073 178.039 55.073C177.334 55.0719 176.753 54.8899 176.294 54.5214C175.842 54.1542 175.615 53.6666 175.615 53.0488C175.615 52.7129 175.627 52.4473 175.653 52.2487C175.68 52.0504 175.727 51.8047 175.8 51.5126L176.02 50.6982H175.424C175.094 50.6973 174.847 50.7239 174.672 50.776C174.5 50.8269 174.283 50.9518 174.03 51.144C173.771 51.3449 173.55 51.5681 173.37 51.8107C173.189 52.0504 173.021 52.2962 172.864 52.5413C172.73 52.7543 172.56 53.0219 172.366 53.3431C172.168 53.6625 171.948 53.9577 171.708 54.2209C171.408 54.5617 171.124 54.7908 170.863 54.9019C170.596 55.0182 170.271 55.0765 169.89 55.0765C169.391 55.0755 169.006 54.9469 168.731 54.7023C168.607 54.589 168.514 54.4587 168.444 54.3162C167.832 54.5534 167.345 54.7358 166.978 54.8637C166.596 54.9954 166.153 55.0605 165.648 55.0596C164.935 55.0596 164.366 54.8951 163.938 54.5787C163.514 54.2576 163.246 53.8472 163.133 53.3368L163.067 53.3351C162.386 53.9602 161.737 54.4183 161.122 54.7142C160.507 55.0115 159.793 55.1614 158.987 55.1604C158.267 55.1604 157.708 54.9588 157.322 54.5638C156.924 54.1707 156.735 53.6921 156.735 53.1283C156.735 52.9273 156.746 52.724 156.769 52.5144C156.787 52.312 156.851 52.0185 156.947 51.6411L157.681 48.9138C157.724 48.7327 157.784 48.4861 157.839 48.1716C157.904 47.858 157.932 47.6236 157.932 47.4784C157.932 47.1214 157.861 46.8665 157.713 46.7249C157.569 46.5785 157.286 46.5058 156.866 46.5058C156.656 46.5058 156.447 46.5361 156.227 46.6013C156.017 46.6633 155.827 46.7286 155.675 46.7872L155.886 45.911C156.41 45.6965 156.912 45.5171 157.39 45.3633C157.874 45.2108 158.327 45.1381 158.75 45.1381C159.521 45.1391 160.114 45.3333 160.533 45.7183C160.949 46.1015 161.159 46.5806 161.158 47.1517C161.158 47.2654 161.145 47.4809 161.118 47.7899C161.092 48.0999 161.039 48.3907 160.96 48.655L160.253 51.2385C160.188 51.4658 160.133 51.7077 160.096 51.9737C160.055 52.2342 160.036 52.4247 160.036 52.5396C160.035 52.8442 160.103 53.0833 160.251 53.2592C160.391 53.4428 160.639 53.5307 160.987 53.5317C161.239 53.5317 161.577 53.4267 161.993 53.2168C162.409 53.0073 162.824 52.7069 163.232 52.319L164.842 45.3077L167.942 45.1744L168.054 45.3114L166.671 51.2833C166.624 51.4728 166.569 51.7196 166.514 52.0333C166.447 52.3423 166.417 52.5725 166.417 52.7214C166.417 53.0974 166.503 53.3507 166.666 53.4883C166.827 53.6241 167.117 53.6931 167.535 53.6931C167.726 53.6931 167.951 53.6579 168.194 53.5937C168.242 53.5793 168.28 53.5685 168.319 53.5559C168.342 53.0554 168.488 52.6588 168.761 52.3629C169.058 52.0454 169.42 51.8893 169.852 51.8893C170.167 51.8905 170.459 51.9737 170.735 52.1408C171.009 52.3094 171.235 52.4661 171.419 52.6099C171.601 52.2723 171.812 51.9242 172.059 51.5681C172.308 51.2157 172.626 50.9301 173.021 50.7155L173.022 50.6306C172.15 50.5492 171.478 50.2772 171.006 49.8117C170.539 49.3454 170.305 48.7822 170.305 48.1202C170.307 47.1553 170.79 46.4003 171.76 45.8554C172.73 45.3094 174.165 45.0351 176.066 45.0377C177.47 45.0385 178.504 45.1976 179.159 45.5087C179.821 45.8263 180.148 46.2247 180.147 46.6996ZM175.844 45.8055C175.574 45.8046 175.309 45.848 175.061 45.9412C174.812 46.0301 174.585 46.1715 174.375 46.3586C174.175 46.5438 174.017 46.7895 173.896 47.086C173.774 47.3795 173.714 47.7283 173.714 48.1241C173.713 48.6477 173.853 49.073 174.141 49.3985C174.428 49.7171 174.872 49.8817 175.482 49.8833L176.227 49.8843L176.531 48.787C176.659 48.2843 176.762 47.8115 176.845 47.3802C176.919 46.9467 176.96 46.6403 176.96 46.4681C176.96 46.2782 176.861 46.1192 176.661 45.9948C176.455 45.8686 176.186 45.8055 175.844 45.8055ZM97.1925 41.5319C97.1936 40.3811 96.9117 39.4738 96.3471 38.8087C95.7821 38.1458 94.9325 37.8106 93.8095 37.808C92.6689 37.808 90.4813 38.6148 89.6664 39.3213H89.5899C89.5118 39.1406 89.41 38.9551 89.3014 38.7857C89.198 38.6205 89.0434 38.4589 88.8712 38.3372C88.6686 38.198 88.4208 38.0742 88.1541 38.013C87.8868 37.951 87.5657 37.9126 87.2116 37.9126C86.7854 37.9126 86.3206 37.991 85.8517 38.1388C85.3786 38.2826 84.8724 38.4745 84.3446 38.6851L84.1321 39.5607C84.2799 39.4991 84.4759 39.4315 84.6982 39.3743C84.9159 39.3187 85.131 39.2789 85.3238 39.2789C85.7442 39.2793 86.027 39.3597 86.1722 39.5098C86.3093 39.659 86.3863 39.907 86.3847 40.2524C86.3847 40.4393 86.3501 40.6876 86.2917 40.9708C86.2338 41.2542 86.18 41.5016 86.1392 41.6868L83.7344 52.9749C83.6801 53.2313 83.5963 53.4376 83.4821 53.59C83.3653 53.7441 83.1977 53.8555 82.98 53.9248C82.8467 53.9639 82.6538 53.9996 82.4046 54.0369C82.1497 54.0706 81.9387 54.0964 81.7723 54.1098L81.6146 54.7891L88.6314 54.7968L88.7854 54.1169C88.575 54.103 88.3159 54.0683 88 54.0023C87.6769 53.94 87.4535 53.8741 87.3092 53.814C87.183 53.7524 87.0812 53.6666 87.0176 53.543C86.9525 53.4194 86.9205 53.2824 86.9205 53.1326C86.9205 53.0859 86.9385 53.0027 86.953 52.9045C86.9608 52.8045 86.997 52.6901 87.0093 52.626L87.8371 48.3992C89.1494 49.4481 91.9486 49.2808 93.3762 48.6123C94.0628 48.2901 94.688 47.8252 95.2371 47.2325C95.7655 46.6609 96.1858 45.9736 96.4909 45.1916C96.8026 44.4038 97.1915 42.4004 97.1925 41.5319ZM92.629 46.5336C92.9088 45.9715 93.1239 45.3719 93.2645 44.7553C93.4067 44.1336 93.7149 42.2626 93.7149 41.4929C93.7149 41.1754 93.6911 40.8809 93.6512 40.6149C93.6088 40.3483 93.522 40.111 93.4088 39.9188C93.2893 39.7209 93.1332 39.5596 92.9362 39.4505C92.2646 39.0713 90.0775 39.7197 89.6752 40.2044L88.2296 46.7094C87.8589 48.3881 90.7331 48.5883 91.6757 47.802C92.0423 47.4957 92.3685 47.0679 92.629 46.5336ZM22.5055 47.3723C22.5055 47.9276 22.3954 48.3751 22.1844 48.7143C21.9742 49.0488 21.6223 49.3232 21.1359 49.5389C20.913 49.6333 20.6155 49.7147 20.2394 49.7925C19.8662 49.8591 19.4879 49.9181 19.1033 49.9667C19.228 48.7217 19.5153 47.6944 19.9591 46.8763C20.3973 46.0661 20.8754 45.6616 21.3708 45.6628C21.7233 45.6642 22.0057 45.8092 22.2086 46.1061C22.4054 46.4003 22.5063 46.8194 22.5055 47.3723ZM20.3055 55.0643C21.3046 55.0658 22.2636 54.816 23.1735 54.3255C24.0857 53.8279 24.831 53.1645 25.4187 52.3362L24.707 51.7475C24.2222 52.3837 23.7113 52.8559 23.175 53.1455C22.6388 53.4432 21.9899 53.588 21.2269 53.5865C20.7888 53.5865 20.4267 53.4981 20.1425 53.3312C19.8544 53.1562 19.6355 52.9252 19.4818 52.6331C19.3518 52.3787 19.2536 52.0747 19.191 51.7222C19.125 51.3622 19.0869 51.0437 19.0765 50.7582C19.7992 50.6805 20.4125 50.5979 20.9168 50.5094C21.4136 50.4186 22.0249 50.2651 22.7366 50.053C23.6365 49.8079 24.3495 49.4289 24.8764 48.9259C25.4007 48.415 25.6621 47.8081 25.6633 47.1018C25.6633 46.3674 25.3644 45.812 24.7564 45.441C24.1523 45.0705 23.2687 44.8876 22.111 44.885C21.1278 44.8836 20.2251 45.0556 19.4094 45.3976C18.5941 45.7404 17.9216 46.1872 17.3915 46.7377C16.8261 47.3122 16.398 47.9586 16.116 48.6765C15.8298 49.3961 15.687 50.1362 15.6858 50.9022C15.6858 51.5014 15.7787 52.0504 15.9675 52.5533C16.1534 53.0488 16.4351 53.4866 16.8103 53.8625C17.1914 54.2433 17.6735 54.5317 18.2595 54.7421C18.8482 54.9552 19.5273 55.0643 20.3055 55.0643ZM31.17 55.0755C29.6884 55.073 28.5236 54.696 27.6951 53.9536C26.8614 53.2069 26.446 52.1851 26.4473 50.8815C26.4483 50.0984 26.582 49.3562 26.8463 48.655C27.1123 47.9519 27.5184 47.3137 28.0738 46.7346C28.5841 46.1944 29.245 45.7511 30.0444 45.4083C30.8477 45.0663 31.748 44.8947 32.7363 44.896C33.8805 44.8971 34.759 45.1102 35.3629 45.5309C35.9698 45.9544 36.2697 46.5321 36.2685 47.2678C36.2677 47.4698 36.2341 47.6944 36.1727 47.9363C36.1069 48.1874 36.012 48.3932 35.8786 48.5588C35.7162 48.765 35.5424 48.9259 35.3506 49.035C35.1599 49.1491 34.8725 49.2011 34.4924 49.2C33.9869 49.2 33.5936 49.0764 33.3102 48.8219C33.0299 48.5752 32.8867 48.3154 32.8888 48.0444C32.8888 47.7182 32.9578 47.3987 33.0925 47.0824C33.2309 46.7638 33.4031 46.4313 33.6096 46.0817C33.554 46.013 33.4321 45.9233 33.252 45.8201C33.0794 45.7136 32.8457 45.6652 32.5616 45.6652C31.8032 45.6642 31.1779 46.1217 30.6742 47.035C30.1761 47.9535 29.9256 49.0869 29.9249 50.4391C29.9237 51.4688 30.1134 52.248 30.4894 52.7796C30.8705 53.3103 31.4053 53.5767 32.1059 53.5778C32.8161 53.5778 33.4123 53.4432 33.8929 53.1662C34.3639 52.8896 34.8512 52.4227 35.3538 51.7572L36.054 52.3467C35.5202 53.1682 34.8135 53.831 33.9398 54.3264C33.0685 54.8226 32.1449 55.0765 31.17 55.0755ZM41.7269 49.2057L44.8629 49.2098L45.7903 45.1916L48.8871 45.0582L49.0059 45.1935L47.6204 51.1648C47.5729 51.3537 47.5215 51.6035 47.4616 51.9146C47.4041 52.2235 47.3764 52.4537 47.3764 52.6029C47.3757 52.9812 47.4548 53.2338 47.6172 53.3699C47.7794 53.5052 48.0682 53.5751 48.4832 53.5751C48.6774 53.5751 48.8966 53.5416 49.1412 53.4764C49.3876 53.4035 49.5651 53.344 49.6742 53.297L49.4643 54.1657C48.8161 54.42 48.3101 54.6108 47.9278 54.7448C47.5457 54.878 47.1001 54.9443 46.5988 54.9433C45.8926 54.9422 45.3076 54.7587 44.8544 54.391C44.3983 54.0249 44.1698 53.5353 44.1706 52.9179C44.1712 52.5822 44.1798 52.3302 44.1994 52.163C44.2196 51.9933 44.2636 51.7388 44.3452 51.4052L44.6417 50.1398L41.5102 50.1378L40.4371 54.7623L37.2227 54.7587L38.6085 48.7836C38.6459 48.6062 38.6994 48.369 38.7588 48.0781C38.8209 47.7865 38.8537 47.5439 38.8543 47.3516C38.8543 46.982 38.7786 46.7275 38.6231 46.5892C38.4739 46.4498 38.1963 46.3786 37.7946 46.3786C37.5906 46.3786 37.3765 46.4088 37.1594 46.4747C36.9433 46.5373 36.7568 46.6013 36.5994 46.6583L36.812 45.7863C37.3429 45.5727 37.8421 45.3875 38.3227 45.2364C38.7991 45.0852 39.2528 45.0132 39.682 45.0132C40.4775 45.0132 41.0784 45.2057 41.4773 45.5925C41.8778 45.9853 42.0794 46.4643 42.0794 47.0426C42.0782 47.2689 42.0616 47.5005 42.0398 47.7317C42.0127 47.9657 41.9592 48.2332 41.8823 48.5388L41.7269 49.2057ZM57.886 47.4072C57.886 47.2627 57.8674 47.0982 57.8286 46.9006C57.7908 46.7053 57.721 46.5472 57.6218 46.408C57.5096 46.2392 57.3544 46.1085 57.1678 46.0227C56.9828 45.9363 56.7475 45.889 56.4678 45.889C56.0427 45.8877 55.6487 46.0429 55.292 46.3482C54.9285 46.6583 54.6105 47.0679 54.3329 47.5779C54.0578 48.0831 53.8448 48.6704 53.6896 49.342C53.5331 50.0115 53.4534 50.6973 53.4534 51.3931C53.4524 51.7122 53.4792 52.0071 53.5258 52.2807C53.5764 52.5494 53.6529 52.7769 53.7631 52.9697C53.8789 53.1718 54.0377 53.3212 54.2325 53.4376C54.4316 53.5467 54.6803 53.6 54.9756 53.6C55.28 53.6004 55.5722 53.5135 55.852 53.3351C56.1363 53.1552 56.4 52.9381 56.6373 52.6799L57.886 47.4072ZM73.7447 46.5953C73.7447 46.8548 73.7188 47.1235 73.6651 47.3951C73.6169 47.6677 73.5705 47.8737 73.5291 48.0141L72.6635 51.1891C72.6061 51.4072 72.5483 51.655 72.497 51.94C72.4433 52.2308 72.4195 52.4599 72.4195 52.6281C72.419 53.0038 72.4996 53.2566 72.6605 53.3952C72.8212 53.5307 73.1077 53.6004 73.5229 53.6004C73.7198 53.6004 73.9401 53.5659 74.1883 53.4996C74.4318 53.4289 74.6097 53.3683 74.7203 53.3212L74.5053 54.1898C73.8661 54.4454 73.3533 54.6367 72.9696 54.77C72.5886 54.9019 72.1413 54.9684 71.6403 54.9675C70.9345 54.9665 70.3529 54.7845 69.8974 54.4163C69.4372 54.0487 69.2139 53.5612 69.2144 52.9433C69.216 52.6072 69.2257 52.3423 69.252 52.1457C69.2806 51.9449 69.3301 51.7 69.3989 51.4086L69.6249 50.5932L69.0205 50.5918C68.6999 50.5918 68.4476 50.6185 68.2713 50.6703C68.1022 50.7225 67.8819 50.8466 67.6301 51.0401C67.3737 51.2409 67.1518 51.4627 66.9698 51.7051C66.7899 51.9449 66.6172 52.1907 66.4611 52.4383C66.3282 52.6489 66.1633 52.9169 65.9668 53.2374C65.7683 53.5559 65.5481 53.8528 65.3096 54.1169C65.0128 54.4562 64.7285 54.6851 64.4612 54.7968C64.197 54.9128 63.8739 54.9721 63.4912 54.9718C62.9923 54.9701 62.6076 54.8429 62.3336 54.5952C62.2023 54.4759 62.1004 54.3362 62.0316 54.1759L62.028 54.1992C61.3843 54.45 60.8713 54.6402 60.4898 54.7793C60.101 54.9091 59.6558 54.9784 59.1517 54.9767C58.4857 54.9767 57.9511 54.8418 57.552 54.5798C57.1554 54.3196 56.8767 53.9788 56.7273 53.5648H56.6477C56.4212 53.755 56.2046 53.9355 55.9978 54.0978C55.7987 54.2576 55.5386 54.421 55.2253 54.5813C54.9559 54.7219 54.672 54.8429 54.367 54.9324C54.0656 55.0305 53.7331 55.0755 53.3727 55.0739C52.2456 55.073 51.3952 54.7421 50.8301 54.0792C50.2581 53.4113 49.9742 52.5045 49.9754 51.3537C49.9761 50.4659 50.1374 49.6333 50.4561 48.8583C50.773 48.0797 51.196 47.3971 51.7311 46.8087C52.2667 46.226 52.8945 45.7671 53.6136 45.4269C54.3354 45.0896 55.0893 44.9179 55.8897 44.9189C56.4688 44.9189 56.9796 44.9882 57.4171 45.1233C57.8529 45.2606 58.2107 45.4495 58.4925 45.6823L61.4712 45.0705L61.6076 45.2263L60.176 51.1975C60.1217 51.3971 60.0704 51.6485 60.01 51.9511C59.9506 52.2529 59.9221 52.4806 59.9211 52.6357C59.9211 53.0027 60.0069 53.2592 60.175 53.3988C60.3383 53.5369 60.632 53.6056 61.0462 53.6056C61.224 53.6056 61.4469 53.5741 61.7032 53.5018C61.7834 53.479 61.8558 53.4582 61.9205 53.4376C61.9401 52.9448 62.0916 52.5507 62.3615 52.2585C62.6536 51.9413 63.0212 51.7848 63.454 51.7848C63.7658 51.7863 64.0564 51.8676 64.3314 52.0357C64.6071 52.2054 64.8345 52.3619 65.0191 52.5044C65.2016 52.168 65.4125 51.8192 65.6582 51.4627C65.9027 51.1092 66.2269 50.8246 66.6188 50.6098V50.5239C65.7512 50.4442 65.0781 50.1711 64.606 49.7076C64.1385 49.2401 63.9054 48.6765 63.9059 48.0154C63.907 47.0511 64.3908 46.2953 65.3598 45.75C66.3251 45.2037 67.7626 44.93 69.6662 44.9324C71.0689 44.9345 72.1051 45.092 72.7602 45.4037C73.42 45.7221 73.7452 46.1192 73.7447 46.5953ZM69.4418 45.6999C69.1715 45.6999 68.9103 45.7423 68.6622 45.8369C68.413 45.9248 68.1839 46.0661 67.9787 46.2526C67.7759 46.4391 67.6162 46.6838 67.4973 46.982C67.3737 47.2749 67.3142 47.6236 67.3137 48.0175C67.3132 48.5422 67.4559 48.9674 67.7371 49.293C68.0262 49.6117 68.4729 49.7777 69.0825 49.7777L69.8286 49.7787L70.1316 48.6816C70.2614 48.1801 70.3648 47.7067 70.4439 47.2749C70.5194 46.8416 70.5596 46.5361 70.5596 46.3614C70.5596 46.1727 70.4609 46.015 70.2578 45.889C70.0592 45.7632 69.7841 45.6999 69.4418 45.6999ZM15.1102 54.1316C14.4638 54.3874 13.9552 54.5787 13.5738 54.7106C13.1897 54.8429 12.7488 54.9091 12.2412 54.9091C11.5364 54.9091 10.9553 54.725 10.4982 54.3569C10.0454 53.9907 9.81418 53.5028 9.81459 52.8849C9.81558 52.5494 9.82933 52.2857 9.84691 52.0975C9.86506 51.9064 9.9014 51.6582 9.99349 51.3719L12.9528 42.0732C13.1514 41.44 13.4147 40.526 13.4147 39.8505C13.4163 38.7968 11.2374 38.603 9.82085 39.2386C9.02445 39.5984 8.6407 40.4245 8.37774 41.0062C8.18084 41.4494 5.58131 49.0971 5.34012 49.8314C5.10888 50.5386 4.85278 51.2244 4.60133 51.8444C4.34645 52.4722 4.06753 53.0053 3.76317 53.4531C3.43193 53.94 3.09101 54.3109 2.75695 54.5472C2.42148 54.7793 1.99229 54.9106 1.48132 54.9106C1.06041 54.9091 0.699696 54.7783 0.432086 54.5455C0.158417 54.3083 0.015625 53.9484 0.015625 53.4883C0.0162308 52.9381 0.159427 52.5045 0.449253 52.1851C0.742109 51.8686 1.10586 51.7122 1.53989 51.7138C1.85598 51.7138 2.13691 51.7915 2.37523 51.9424C2.6186 52.0955 2.82644 52.2616 3.00719 52.4426C3.26571 52.0333 3.51636 51.5212 3.75347 50.8922C3.99805 50.2721 4.1465 49.855 4.21517 49.6591C4.40583 49.1067 6.97387 41.5006 7.20209 40.9337C7.42829 40.3604 7.73629 39.8374 8.08834 39.388C8.44138 38.936 8.92854 38.5424 9.49201 38.2626C10.7256 37.6444 14.6305 37.4844 15.9668 38.2745C16.4654 38.57 16.7108 38.9309 16.7108 39.3642C16.7105 39.6193 16.6928 39.8738 16.6565 40.1165C16.6171 40.3645 16.5656 40.6382 16.4818 40.9118L13.2642 51.1309C13.1987 51.3439 13.1521 51.5977 13.0978 51.8822C13.0453 52.1716 13.0224 52.4019 13.022 52.5692C13.022 52.946 13.1019 53.1997 13.2635 53.3351C13.4278 53.4711 13.7138 53.5416 14.1276 53.543C14.3181 53.543 14.5449 53.5079 14.7871 53.4432C15.0341 53.3699 15.2138 53.3103 15.3212 53.2618L15.1102 54.1316ZM101.712 53.6098H101.636C101.411 53.7985 101.194 53.9788 100.988 54.1429C100.788 54.3016 100.527 54.465 100.22 54.6274C99.9437 54.7663 99.6609 54.8874 99.3579 54.9767C99.0579 55.0755 98.7265 55.1189 98.3651 55.1176C97.2349 55.1176 96.389 54.7881 95.8177 54.1233C95.2484 53.4557 94.9651 52.5494 94.9651 51.3985C94.9661 50.5094 95.1259 49.6773 95.4439 48.9042C95.7649 48.1241 96.1889 47.4415 96.7179 46.8537C97.2602 46.2711 97.8854 45.8106 98.6061 45.4713C99.3232 45.1334 100.082 44.9614 100.88 44.9624C101.46 44.9637 101.968 45.0324 102.406 45.1683C102.844 45.3056 103.203 45.4928 103.48 45.7268L106.461 45.1155L106.598 45.2713L105.166 51.2426C105.114 51.4409 105.053 51.693 104.998 51.9949C104.941 52.2979 104.905 52.5251 104.905 52.6799C104.905 53.0478 104.994 53.3043 105.164 53.4432C105.327 53.5828 105.62 53.6497 106.036 53.6507C106.217 53.6507 106.437 53.6175 106.69 53.5452C106.946 53.4747 107.125 53.416 107.231 53.3719L107.016 54.2433C106.375 54.4948 105.863 54.6862 105.48 54.8243C105.091 54.9525 104.643 55.0218 104.139 55.0218C103.475 55.0208 102.94 54.8863 102.543 54.6237C102.146 54.363 101.868 54.0239 101.712 53.6098Z" fill="#D9D9D9"/>
<path fill-rule="evenodd" clip-rule="evenodd" d="M116.004 15.0349C111.865 20.5532 105.106 21.7047 98.4419 18.1542C95.379 16.3528 92.5022 13.6869 89.222 11.9228C82.2249 8.1639 69.8868 10.3934 65.2464 16.8952C63.4771 19.3764 63.3478 23.8168 65.8875 25.918C68.0167 27.6776 71.2167 27.4728 73.0392 25.46C74.8561 23.4471 74.6089 20.3884 72.4798 18.6278C71.1158 17.496 69.2958 17.1754 67.6915 17.6289C67.8083 16.8616 68.3284 16.192 69.0202 15.6646C72.2367 13.2102 76.4454 14.4759 79.556 16.4453C85.3272 20.0983 90.2965 26.8855 97.6292 27.1165C98.2533 27.1373 98.8582 27.1404 99.4518 27.1202C106.72 26.9744 114.433 21.7968 116.004 15.0349ZM72.7806 10.0108C75.4228 5.31035 84.6493 1.14404 90.1988 1.20091C96.5718 1.27123 101.447 6.36615 106.338 9.25176C110.377 11.4006 113.465 11.1172 115.29 10.5459C115.89 10.3127 116.518 10.0077 117.185 9.61989C117.18 9.62609 117.176 9.63643 117.176 9.6447C117.176 9.6447 117.176 9.6447 117.176 9.64781C115.228 15.4165 110.471 18.2901 105.532 18.1289C98.7299 17.9127 94.3217 11.9713 88.6921 9.33603C83.9606 7.11637 77.2697 7.70219 72.7806 10.0108Z" fill="#D9D9D9"/>
</g>
</svg>
