<svg width="202" height="72" viewBox="0 0 202 72" fill="none" xmlns="http://www.w3.org/2000/svg">
<g clip-path="url(#clip0_1912_4338)">
<path d="M16.7469 47.9447C15.624 48.3681 14.6077 49.0329 13.7699 49.8922C12.9321 50.7515 12.2933 51.7842 11.8984 52.9175L19.7617 61.0294L27.4073 53.0729C27.0857 51.9107 26.4882 50.8432 25.6657 49.9613C24.8433 49.0793 23.8201 48.4089 22.6831 48.0069C21.7611 48.9393 19.7927 50.7419 19.7927 50.7419C19.7927 50.7419 17.8036 48.8978 16.7469 47.9447Z" fill="#D9D9D9"/>
<path d="M0.0117188 33.1041V64.7591L7.2378 71.146V67.2765C6.59801 66.6228 1.6178 61.1617 2.66905 53.2439C3.61837 46.0938 8.82288 42.5214 9.61543 41.7288L0.0117188 33.1041Z" fill="#D9D9D9"/>
<path d="M29.6602 41.7286L39.3571 33.1507V64.8057L32.131 71.0528V49.5612L34.5552 47.067L33.8486 46.0613C33.11 45.0103 32.2535 44.0473 31.2958 43.1912L29.6602 41.7286Z" fill="#D9D9D9"/>
<path d="M24.7787 63.1864C23.2304 64.2319 21.3953 64.77 19.5275 64.7261C17.6598 64.6822 15.8519 64.0585 14.3544 62.9415C12.8569 61.8244 11.7438 60.2693 11.1694 58.4916C10.595 56.7138 10.5877 54.8014 11.1486 53.0193C11.7094 51.2372 12.8106 49.6736 14.2995 48.5452C15.7885 47.4168 17.5916 46.7794 19.4589 46.7212C21.3263 46.6631 23.1655 47.1872 24.7217 48.2208C26.278 49.2545 27.4743 50.7465 28.1448 52.4903L33.4654 46.9769C31.6937 44.1953 29.119 42.0174 26.0822 40.7316C23.0453 39.4458 19.6895 39.1127 16.4592 39.7765C13.2288 40.4402 10.2762 42.0694 7.99235 44.4485C5.70849 46.8275 4.20108 49.8441 3.66973 53.0989C3.13837 56.3537 3.60813 59.6931 5.01679 62.6749C6.42546 65.6568 8.70659 68.1405 11.5581 69.7971C14.4097 71.4537 17.6972 72.2052 20.9853 71.952C24.2734 71.6987 27.4071 70.4528 29.9713 68.379L24.7787 63.1864Z" fill="#D9D9D9"/>
<path d="M53.0977 13.5645V2.9061H59.9209V3.74603H53.9821V13.5645H53.0977Z" fill="#D9D9D9"/>
<path d="M66.182 2.89857C67.2345 2.90806 68.2607 3.22881 69.1314 3.8204C70.002 4.412 70.678 5.24799 71.0744 6.22308C71.4708 7.19818 71.5698 8.26877 71.3589 9.30001C71.148 10.3313 70.6367 11.277 69.8893 12.0182C69.1419 12.7594 68.1919 13.2629 67.159 13.4652C66.126 13.6675 65.0563 13.5596 64.0845 13.1551C63.1128 12.7507 62.2824 12.0677 61.6981 11.1922C61.1137 10.3167 60.8015 9.28786 60.8008 8.23527C60.8008 7.5307 60.9404 6.83312 61.2114 6.18276C61.4824 5.53239 61.8795 4.94212 62.3797 4.44599C62.88 3.94986 63.4736 3.55769 64.1262 3.29211C64.7787 3.02652 65.4775 2.89277 66.182 2.89857ZM66.182 12.7394C67.0738 12.7438 67.9469 12.4834 68.6905 11.9911C69.4342 11.4989 70.015 10.7969 70.3593 9.97427C70.7036 9.15161 70.796 8.24525 70.6247 7.37004C70.4534 6.49483 70.0262 5.69016 69.3971 5.058C68.7681 4.42584 67.9655 3.99464 67.0912 3.81905C66.2168 3.64345 65.31 3.73136 64.4856 4.07164C63.6613 4.41191 62.9565 4.98924 62.4606 5.73045C61.9647 6.47167 61.7 7.34342 61.7 8.23524C61.6965 8.82586 61.8098 9.41135 62.0335 9.95797C62.2573 10.5046 62.5869 11.0016 63.0035 11.4202C63.4201 11.8389 63.9154 12.171 64.461 12.3975C65.0065 12.6239 65.5914 12.74 66.182 12.7394Z" fill="#D9D9D9"/>
<path d="M83.266 9.81856C82.8737 11.0379 82.0606 12.078 80.9721 12.7532C79.8836 13.4284 78.5905 13.6946 77.3238 13.5044C76.0571 13.3141 74.8992 12.6797 74.0571 11.7145C73.215 10.7494 72.7434 9.51624 72.7266 8.23544C72.7395 6.95275 73.2087 5.71658 74.0502 4.74843C74.8918 3.78028 76.0505 3.14343 77.3189 2.95199C78.5873 2.76055 79.8824 3.02703 80.9722 3.70369C82.0619 4.38035 82.8751 5.42296 83.266 6.6447L82.4188 6.90484C82.101 5.87128 81.423 4.98606 80.5078 4.41012C79.5927 3.83417 78.5013 3.60576 77.432 3.7664C76.3627 3.92704 75.3865 4.46608 74.681 5.2855C73.9755 6.10491 73.5875 7.1503 73.5875 8.2316C73.5875 9.31289 73.9755 10.3583 74.681 11.1777C75.3865 11.9971 76.3627 12.5361 77.432 12.6968C78.5013 12.8574 79.5927 12.629 80.5078 12.0531C81.423 11.4771 82.101 10.5919 82.4188 9.55835L83.266 9.81856Z" fill="#D9D9D9"/>
<path d="M85.7934 12.6874C86.1664 12.6797 86.5296 12.5668 86.8412 12.3617C87.1529 12.1566 87.4002 11.8676 87.5548 11.5281L88.3798 10.0341L84.5001 2.9061H85.4737L88.8631 9.14958L92.2747 2.9061H93.2484L88.3575 11.8401C87.8522 12.762 86.9752 13.5795 85.7933 13.5646C85.3144 13.5581 84.8445 13.4329 84.4258 13.2003L84.8494 12.4273C85.1376 12.591 85.462 12.6804 85.7934 12.6874Z" fill="#D9D9D9"/>
<path d="M102.833 12.7247H104.289V15.772H103.405V13.5645H94.9317V15.772H94.0547V12.7247H95.1918C96.708 10.2867 96.7453 6.10957 96.76 2.90613H102.833L102.833 12.7247ZM97.6222 3.74596C97.6222 6.5034 97.5927 10.0265 96.1804 12.7247H101.955V3.74596H97.6222Z" fill="#D9D9D9"/>
<path d="M110.478 2.89857L114.744 13.5645H113.845L112.96 11.3644H107.088L106.204 13.5645H105.305L109.571 2.89857H110.478ZM107.416 10.5319H112.634L110.025 4.02094L107.416 10.5319Z" fill="#D9D9D9"/>
<path d="M120.396 2.9061C120.775 2.90294 121.151 2.97491 121.503 3.11786C121.854 3.26081 122.173 3.47191 122.443 3.73899C122.712 4.00606 122.926 4.32382 123.072 4.67393C123.218 5.02403 123.293 5.39956 123.293 5.77885C123.293 6.15813 123.218 6.53366 123.072 6.88377C122.926 7.23388 122.712 7.55163 122.443 7.81871C122.173 8.08578 121.854 8.29688 121.503 8.43984C121.151 8.58279 120.775 8.65476 120.396 8.6516H116.865V13.5645H115.988V2.9061H120.396ZM120.329 7.82661C120.876 7.82894 121.402 7.61573 121.793 7.23315C122.183 6.85057 122.408 6.32942 122.417 5.78254C122.406 5.23776 122.18 4.71948 121.789 4.33976C121.398 3.96004 120.874 3.7494 120.329 3.75338H116.865V7.82674L120.329 7.82661Z" fill="#D9D9D9"/>
<path d="M134.707 9.81856C134.315 11.0379 133.502 12.078 132.413 12.7532C131.325 13.4284 130.032 13.6946 128.765 13.5044C127.498 13.3141 126.341 12.6797 125.499 11.7145C124.656 10.7494 124.185 9.51624 124.168 8.23544C124.181 6.95275 124.65 5.71658 125.492 4.74843C126.333 3.78028 127.492 3.14343 128.76 2.95199C130.029 2.76055 131.324 3.02703 132.414 3.70369C133.503 4.38035 134.317 5.42296 134.707 6.6447L133.86 6.90484C133.542 5.87128 132.864 4.98606 131.949 4.41012C131.034 3.83417 129.942 3.60576 128.873 3.7664C127.804 3.92704 126.828 4.46608 126.122 5.2855C125.417 6.10491 125.029 7.1503 125.029 8.2316C125.029 9.31289 125.417 10.3583 126.122 11.1777C126.828 11.9971 127.804 12.5361 128.873 12.6968C129.942 12.8574 131.034 12.629 131.949 12.0531C132.864 11.4771 133.542 10.5919 133.86 9.55835L134.707 9.81856Z" fill="#D9D9D9"/>
<path d="M144.743 2.9061V3.74603H140.565V13.5645H139.681V3.74603H135.504V2.9061H144.743Z" fill="#D9D9D9"/>
<path d="M151.071 8.01234C151.69 8.13733 152.246 8.47168 152.647 8.95904C153.048 9.44641 153.268 10.057 153.272 10.688C153.272 11.0671 153.198 11.4426 153.052 11.7928C152.907 12.143 152.694 12.461 152.425 12.7284C152.156 12.9958 151.837 13.2074 151.486 13.3509C151.135 13.4944 150.759 13.567 150.38 13.5645H145.973V2.9061H149.392C149.771 2.90294 150.147 2.97507 150.498 3.11833C150.85 3.26158 151.169 3.4731 151.438 3.74063C151.707 4.00817 151.92 4.3264 152.065 4.67691C152.21 5.02741 152.284 5.40321 152.283 5.78254C152.28 6.22518 152.168 6.66024 151.957 7.04918C151.745 7.43813 151.441 7.76895 151.071 8.01234ZM146.85 3.73112V7.82661H149.399C149.94 7.81808 150.457 7.59921 150.84 7.21633C151.223 6.83345 151.442 6.31661 151.451 5.77519C151.441 5.2284 151.216 4.70747 150.825 4.32499C150.434 3.9425 149.909 3.72918 149.362 3.73112H146.85ZM150.306 12.7396C150.579 12.744 150.851 12.694 151.105 12.5926C151.358 12.4911 151.59 12.3403 151.785 12.1487C151.98 11.9571 152.135 11.7287 152.241 11.4767C152.347 11.2247 152.401 10.9541 152.402 10.6807C152.402 10.4073 152.349 10.1366 152.244 9.8842C152.138 9.63181 151.984 9.40283 151.79 9.21056C151.596 9.01829 151.365 8.86658 151.111 8.76423C150.858 8.66188 150.587 8.61095 150.313 8.61439H146.85V12.7396H150.306Z" fill="#D9D9D9"/>
<path d="M161.503 2.9061V3.74603H155.556V7.3211H160.15V8.15364H155.556V12.732H161.503V13.5645H154.672V2.9061H161.503Z" fill="#D9D9D9"/>
<path d="M170.69 2.89857V13.5645H169.806V8.16099H163.592V13.5645H162.715V2.89857H163.592V7.31371H169.806V2.89857H170.69Z" fill="#D9D9D9"/>
<path d="M180.467 2.89857V13.5645H179.583V8.16099H173.369V13.5645H172.492V2.89857H173.369V7.31371H179.583V2.89857H180.467Z" fill="#D9D9D9"/>
<path d="M186.685 7.82661C187.063 7.82372 187.439 7.8958 187.789 8.03869C188.14 8.18158 188.459 8.39245 188.727 8.65914C188.996 8.92584 189.209 9.24308 189.355 9.5926C189.5 9.94211 189.575 10.317 189.575 10.6956C189.575 11.0742 189.5 11.4491 189.355 11.7986C189.209 12.1481 188.996 12.4653 188.727 12.732C188.459 12.9987 188.14 13.2096 187.789 13.3525C187.439 13.4954 187.063 13.5674 186.685 13.5646H182.27V2.9061H183.146V7.82661H186.685ZM183.146 12.7319H186.618C186.889 12.7373 187.158 12.6885 187.411 12.5884C187.663 12.4883 187.893 12.3388 188.086 12.1489C188.28 11.9589 188.434 11.7322 188.539 11.482C188.644 11.2318 188.698 10.9631 188.698 10.6917C188.698 10.4204 188.644 10.1517 188.539 9.90152C188.434 9.65132 188.28 9.42459 188.086 9.23461C187.893 9.04462 187.663 8.8952 187.411 8.79508C187.158 8.69496 186.889 8.64616 186.618 8.65153L183.146 8.64398V12.7319ZM191.679 13.5645H190.795V2.9061H191.679V13.5645Z" fill="#D9D9D9"/>
<path d="M201.558 2.92104V13.5645H200.681V4.45218L193.739 13.5645H193.137V2.92104H194.021V12.0334C196.34 8.99355 198.652 5.95609 200.956 2.92104H201.558ZM199.15 0.549939L197.054 3.27034C196.838 3.09199 196.638 2.9061 196.422 2.72789L198.518 -3.05176e-05L199.15 0.549939Z" fill="#D9D9D9"/>
<path d="M63.325 21.0055V31.6639H62.448V22.5812L58.2188 28.2376L53.9748 22.5739V31.6639H53.0977V21.0055H53.6997L58.2188 27.0036L62.723 21.0055H63.325Z" fill="#D9D9D9"/>
<path d="M71.9595 21.0055V21.8454H66.0134V25.4205H70.6069V26.253H66.0134V30.8314H71.9595V31.6639H65.1289V21.0055H71.9595Z" fill="#D9D9D9"/>
<path d="M83.3992 21.0055V31.6639H82.5223V22.5812L78.293 28.2376L74.049 22.5739V31.6639H73.1719V21.0055H73.774L78.293 27.0036L82.7972 21.0055H83.3992Z" fill="#D9D9D9"/>
<path d="M90.2719 20.9981C91.3244 21.0076 92.3506 21.3283 93.2212 21.9199C94.0918 22.5115 94.7679 23.3475 95.1643 24.3226C95.5607 25.2977 95.6597 26.3683 95.4488 27.3995C95.2379 28.4308 94.7265 29.3765 93.9792 30.1177C93.2318 30.8589 92.2818 31.3624 91.2488 31.5647C90.2159 31.767 89.1461 31.6591 88.1744 31.2547C87.2026 30.8502 86.3723 30.1672 85.7879 29.2917C85.2036 28.4162 84.8914 27.3874 84.8906 26.3348C84.8907 25.6302 85.0302 24.9326 85.3012 24.2823C85.5722 23.6319 85.9693 23.0416 86.4696 22.5455C86.9698 22.0494 87.5634 21.6572 88.216 21.3916C88.8686 21.126 89.5673 20.9923 90.2719 20.9981ZM90.2719 30.8389C91.1637 30.8433 92.0367 30.5829 92.7804 30.0906C93.524 29.5984 94.1048 28.8964 94.4491 28.0738C94.7935 27.2511 94.8858 26.3448 94.7145 25.4695C94.5433 24.5943 94.116 23.7897 93.4869 23.1575C92.8579 22.5253 92.0553 22.0942 91.181 21.9186C90.3066 21.743 89.3998 21.8309 88.5755 22.1712C87.7511 22.5114 87.0463 23.0888 86.5504 23.83C86.0545 24.5712 85.7898 25.443 85.7898 26.3348C85.7863 26.9254 85.8996 27.5109 86.1234 28.0575C86.3471 28.6041 86.6767 29.1011 87.0934 29.5198C87.51 29.9384 88.0053 30.2705 88.5508 30.4969C89.0963 30.7233 89.6812 30.8395 90.2719 30.8389Z" fill="#D9D9D9"/>
<path d="M101.54 21.0055C101.92 21.0023 102.296 21.0743 102.647 21.2172C102.998 21.3602 103.318 21.5713 103.587 21.8384C103.857 22.1054 104.07 22.4232 104.216 22.7733C104.362 23.1234 104.437 23.4989 104.437 23.8782C104.437 24.2575 104.362 24.633 104.216 24.9832C104.07 25.3333 103.857 25.651 103.587 25.9181C103.318 26.1852 102.998 26.3963 102.647 26.5392C102.296 26.6822 101.92 26.7541 101.54 26.751H98.0098V31.6639H97.1328V21.0055H101.54ZM101.473 25.926C101.745 25.9324 102.015 25.8844 102.268 25.785C102.52 25.6855 102.751 25.5365 102.945 25.3467C103.139 25.157 103.294 24.9303 103.399 24.68C103.504 24.4297 103.559 24.1609 103.559 23.8893C103.559 23.6177 103.504 23.3489 103.399 23.0986C103.294 22.8483 103.139 22.6216 102.945 22.4319C102.751 22.2421 102.52 22.0931 102.268 21.9937C102.015 21.8942 101.745 21.8462 101.473 21.8526H98.0098V25.926H101.473Z" fill="#D9D9D9"/>
<path d="M106.517 21.0055V30.1328L113.459 21.0055H114.069V31.6639H113.184V22.544L106.235 31.6639H105.633V21.0055H106.517Z" fill="#D9D9D9"/>
<path d="M120.494 20.9981L124.76 31.664H123.861L122.976 29.4639H117.104L116.22 31.664H115.32L119.587 20.9981H120.494ZM117.431 28.6314H122.649L120.04 22.1206L117.431 28.6314Z" fill="#D9D9D9"/>
<path d="M135.153 21.0055V31.6639H134.276V21.8454H129.608V28.8839C129.61 29.2489 129.539 29.6106 129.401 29.9482C129.262 30.2858 129.058 30.5926 128.8 30.851C128.543 31.1094 128.236 31.3142 127.899 31.4538C127.562 31.5933 127.201 31.6647 126.836 31.6638C126.351 31.6666 125.874 31.5409 125.453 31.2996L125.884 30.5192C126.17 30.6886 126.496 30.7784 126.828 30.7793C127.332 30.7791 127.814 30.5796 128.171 30.2244C128.527 29.8692 128.729 29.3872 128.731 28.8839V21.0055H135.153Z" fill="#D9D9D9"/>
<path d="M141.361 25.926C141.74 25.9221 142.116 25.9935 142.468 26.1359C142.819 26.2784 143.139 26.4891 143.408 26.7559C143.678 27.0226 143.892 27.3402 144.038 27.6902C144.184 28.0402 144.259 28.4157 144.259 28.795C144.259 29.1742 144.184 29.5497 144.038 29.8997C143.892 30.2497 143.678 30.5673 143.408 30.8341C143.139 31.1009 142.819 31.3116 142.468 31.454C142.116 31.5965 141.74 31.6678 141.361 31.6639H136.953V21.0055H137.83V25.926H141.361ZM137.83 30.8313H141.294C141.566 30.8377 141.836 30.7897 142.089 30.6901C142.342 30.5904 142.573 30.4411 142.768 30.2511C142.962 30.061 143.117 29.8339 143.222 29.5832C143.328 29.3325 143.382 29.0632 143.382 28.7911C143.382 28.5191 143.328 28.2498 143.222 27.9991C143.117 27.7484 142.962 27.5213 142.768 27.3312C142.573 27.1411 142.342 26.9918 142.089 26.8922C141.836 26.7925 141.566 26.7445 141.294 26.7509H137.83V30.8313Z" fill="#D9D9D9"/>
<path d="M153.428 20.9981V31.664H152.544V26.2605H146.33V31.6639H145.453V20.998H146.33V25.4131H152.544V20.9981H153.428Z" fill="#D9D9D9"/>
<path d="M159.642 25.926C160.02 25.9231 160.396 25.9952 160.746 26.1381C161.097 26.281 161.416 26.4918 161.684 26.7585C161.953 27.0252 162.166 27.3425 162.312 27.692C162.458 28.0415 162.532 28.4164 162.532 28.795C162.532 29.1736 162.458 29.5484 162.312 29.898C162.166 30.2475 161.953 30.5647 161.684 30.8314C161.416 31.0981 161.097 31.309 160.746 31.4519C160.396 31.5947 160.02 31.6668 159.642 31.6639H155.227V21.0055H156.104V25.926H159.642ZM156.104 30.8313H159.575C159.846 30.8367 160.116 30.7879 160.368 30.6878C160.62 30.5877 160.85 30.4382 161.043 30.2483C161.237 30.0583 161.391 29.8315 161.496 29.5813C161.601 29.3311 161.656 29.0625 161.656 28.7911C161.656 28.5197 161.601 28.2511 161.496 28.0009C161.391 27.7507 161.237 27.524 161.043 27.334C160.85 27.144 160.62 26.9946 160.368 26.8945C160.116 26.7944 159.846 26.7455 159.575 26.7509L156.104 26.7434V30.8313ZM164.636 31.6639H163.752V21.0055H164.636V31.6639Z" fill="#D9D9D9"/>
<path d="M174.519 21.0204V31.6639H173.642V22.5516L166.7 31.6639H166.098V21.0204H166.982V30.1328C169.301 27.0929 171.613 24.0554 173.917 21.0204H174.519ZM172.111 18.6493L170.015 21.3697C169.799 21.1914 169.599 21.0055 169.383 20.8273L171.479 18.0995L172.111 18.6493Z" fill="#D9D9D9"/>
<path d="M67.6233 40.8629V54.0162H64.8788V45.8103L60.4913 50.8128L56.1039 45.8103V54.0162H53.3594V40.8629H54.7362L60.4913 47.4442L66.2463 40.8629H67.6233Z" fill="#D9D9D9"/>
<path d="M72.5542 51.2624C73.1324 51.2624 73.573 51.0146 74.3715 49.6195L74.4082 49.5554L69.6719 40.8446H72.6275L75.8859 46.8384L79.1444 40.8446H82.1L76.9141 50.3812C75.987 52.0976 74.8305 54.0161 72.5634 54.0161C71.8269 54.0175 71.1026 53.8278 70.4615 53.4654L71.8016 51.0606C72.0298 51.1943 72.2898 51.264 72.5542 51.2624Z" fill="#D9D9D9"/>
<path d="M84.8193 49.7755C85.2831 50.2882 85.844 50.704 86.4695 50.9986C87.0949 51.2932 87.7726 51.4609 88.4634 51.4919C89.9502 51.5102 91.0883 50.7575 91.0791 49.8948C91.0791 49.0137 89.8124 48.5089 87.8208 48.5089H86.0123V46.0765H87.8208C89.3716 46.0765 90.409 45.6083 90.409 44.7087C90.3999 43.8734 89.427 43.2677 88.1419 43.2768C87.0471 43.299 85.9885 43.6723 85.122 44.3418L83.5526 42.4601C84.9288 41.4317 86.5897 40.8545 88.3071 40.8079C91.0882 40.8079 93.1259 42.5886 93.1351 44.7731C93.1282 45.2418 92.9972 45.7003 92.7553 46.1018C92.5134 46.5033 92.1694 46.8335 91.7582 47.0586C93.0343 47.6828 93.8237 48.6834 93.8237 49.895C93.8143 52.0337 91.6115 53.9795 88.7202 54.0071C86.9946 54.0253 85.0212 53.3552 83.1211 51.6573L84.8193 49.7755Z" fill="#D9D9D9"/>
<path d="M104.996 40.8538V43.3871H98.4882V45.5534H103.335V48.0867H98.4882V51.4829H104.996V54.0161H95.7344V40.8538H104.996Z" fill="#D9D9D9"/>
<path d="M118.268 40.8446V54.0162H115.524V45.6635L107.584 54.0162H106.207V40.8446H108.961V49.1972L116.891 40.8446H118.268ZM115.423 38.5774L112.476 41.6799L110.641 39.9267L113.587 36.8244L115.423 38.5774Z" fill="#D9D9D9"/>
<path d="M60.5922 58.7558L65.8057 71.9182H63.098L62.2993 69.9266H56.1586L55.3693 71.9182H52.6523L57.8751 58.7558H60.5922ZM57.1409 67.4389H61.3172L59.2337 61.9593L57.1409 67.4389Z" fill="#D9D9D9"/>
<path d="M68.4512 71.9182C68.1789 71.9183 67.9127 71.8375 67.6862 71.6863C67.4598 71.535 67.2833 71.32 67.1791 71.0684C67.0748 70.8168 67.0475 70.5399 67.1007 70.2728C67.1538 70.0058 67.2849 69.7604 67.4774 69.5678C67.67 69.3753 67.9153 69.2441 68.1824 69.191C68.4495 69.1378 68.7263 69.1651 68.9779 69.2693C69.2295 69.3735 69.4446 69.55 69.5959 69.7764C69.7472 70.0028 69.8279 70.2691 69.8279 70.5414C69.8238 70.9052 69.6775 71.253 69.4202 71.5104C69.1629 71.7677 68.8151 71.9141 68.4512 71.9182Z" fill="#D9D9D9"/>
<path d="M80.4952 64.814C81.6517 65.4655 82.5513 66.5304 82.5513 67.9714C82.5513 70.3579 80.8255 71.9183 78.5584 71.9183H71.8672V58.7651H77.3285C79.5405 58.7651 81.312 60.307 81.312 62.7026C81.2949 63.4802 81.0059 64.2273 80.4952 64.814ZM74.6115 61.2158V64.098H77.356C77.7345 64.0838 78.0939 63.9277 78.3626 63.6606C78.6313 63.3936 78.7897 63.0352 78.8062 62.6568C78.8062 61.7665 78.026 61.2158 77.1632 61.2158H74.6115ZM78.2096 69.4309C79.0083 69.4309 79.8619 68.9166 79.8619 67.9164C79.857 67.7083 79.8101 67.5033 79.7241 67.3138C79.638 67.1243 79.5146 66.9541 79.3611 66.8135C79.2076 66.6729 79.0273 66.5648 78.831 66.4956C78.6347 66.4264 78.4264 66.3977 78.2187 66.411H74.6115V69.4309H78.2096Z" fill="#D9D9D9"/>
<path d="M85.4511 71.9182C85.1788 71.9182 84.9126 71.8375 84.6861 71.6862C84.4597 71.5349 84.2832 71.3199 84.179 71.0683C84.0748 70.8167 84.0475 70.5398 84.1007 70.2728C84.1538 70.0057 84.2849 69.7603 84.4775 69.5678C84.67 69.3752 84.9154 69.2441 85.1825 69.191C85.4496 69.1378 85.7264 69.1651 85.978 69.2693C86.2296 69.3735 86.4446 69.55 86.5959 69.7764C86.7472 70.0029 86.8279 70.2691 86.8279 70.5414C86.8238 70.9053 86.6774 71.2531 86.4201 71.5104C86.1628 71.7677 85.815 71.9141 85.4511 71.9182Z" fill="#D9D9D9"/>
<path d="M106.133 67.3013C105.344 70.0642 102.756 71.9182 99.7449 71.9182C96.0826 71.9182 93.0352 69.1004 93.0352 65.337C93.0352 61.6471 95.9447 58.7466 99.7449 58.7466C102.654 58.7466 105.28 60.4722 106.133 63.3726L103.518 64.1713C103.306 63.3311 102.82 62.5856 102.137 62.0533C101.453 61.5211 100.611 61.2328 99.745 61.2341C97.4593 61.2341 95.8899 63.0241 95.8899 65.3371C95.8899 67.5493 97.4229 69.431 99.745 69.431C100.614 69.4441 101.462 69.1601 102.148 68.626C102.834 68.0919 103.317 67.3397 103.518 66.4937L106.133 67.3013Z" fill="#D9D9D9"/>
<path d="M110.503 69.1645C111.082 69.1645 111.522 68.9166 112.321 67.5215L112.357 67.4574L107.621 58.7466H110.577L113.835 64.7404L117.094 58.7466H120.049L114.863 68.2833C113.936 69.9998 112.78 71.9182 110.512 71.9182C109.776 71.9197 109.052 71.73 108.411 71.3675L109.751 68.9628C109.979 69.0965 110.239 69.1662 110.503 69.1645Z" fill="#D9D9D9"/>
<path d="M130.296 64.814C131.452 65.4655 132.352 66.5304 132.352 67.9714C132.352 70.3579 130.626 71.9183 128.359 71.9183H121.668V58.7651H127.129C129.341 58.7651 131.113 60.307 131.113 62.7026C131.096 63.4803 130.807 64.2274 130.296 64.814ZM124.412 61.2158V64.098H127.157C127.535 64.0838 127.895 63.9277 128.163 63.6606C128.432 63.3936 128.591 63.0352 128.607 62.6568C128.607 61.7665 127.827 61.2158 126.964 61.2158H124.412ZM128.01 69.4309C128.809 69.4309 129.663 68.9166 129.663 67.9164C129.658 67.7083 129.611 67.5034 129.525 67.3138C129.439 67.1243 129.315 66.9542 129.162 66.8136C129.008 66.6729 128.828 66.5648 128.632 66.4956C128.436 66.4265 128.227 66.3977 128.02 66.411H124.412V69.4309L128.01 69.4309Z" fill="#D9D9D9"/>
<path d="M140.569 58.7558C144.571 58.7558 147.279 61.7665 147.279 65.337C147.279 69.2289 144.25 71.9182 140.569 71.9182C136.586 71.9182 133.859 68.9352 133.859 65.337C133.859 61.6013 136.815 58.7558 140.569 58.7558ZM140.569 69.4309C143.02 69.4309 144.415 67.5492 144.415 65.337C144.415 62.9046 142.754 61.2434 140.569 61.2434C138.137 61.2434 136.714 63.1248 136.714 65.337C136.714 67.5674 138.228 69.4309 140.569 69.4309Z" fill="#D9D9D9"/>
<path d="M155.934 58.7651C158.155 58.7651 159.926 60.2978 159.926 62.7026C159.926 64.9333 158.21 66.5854 155.934 66.5854H151.987V71.9182H149.242V58.7651H155.934ZM155.594 64.1071C156.384 64.1071 157.237 63.6205 157.237 62.7027C157.237 61.8216 156.43 61.2984 155.585 61.2984H151.987V64.1071H155.594Z" fill="#D9D9D9"/>
<path d="M167.768 58.7558C171.77 58.7558 174.478 61.7665 174.478 65.337C174.478 69.2289 171.449 71.9182 167.768 71.9182C163.785 71.9182 161.059 68.9352 161.059 65.337C161.059 61.6013 164.014 58.7558 167.768 58.7558ZM167.768 69.4309C170.219 69.4309 171.614 67.5492 171.614 65.337C171.614 62.9046 169.953 61.2434 167.768 61.2434C165.336 61.2434 163.913 63.1248 163.913 65.337C163.913 67.5674 165.428 69.4309 167.768 69.4309Z" fill="#D9D9D9"/>
<path d="M185.128 64.814C186.285 65.4655 187.184 66.5304 187.184 67.9714C187.184 70.3579 185.458 71.9183 183.191 71.9183H176.5V58.7651H181.961C184.173 58.7651 185.945 60.307 185.945 62.7026C185.928 63.4803 185.639 64.2274 185.128 64.814ZM179.244 61.2158V64.098H181.989C182.368 64.0838 182.727 63.9277 182.996 63.6606C183.264 63.3936 183.423 63.0352 183.439 62.6568C183.439 61.7665 182.659 61.2158 181.796 61.2158H179.244ZM182.843 69.4309C183.641 69.4309 184.495 68.9166 184.495 67.9164C184.49 67.7083 184.443 67.5034 184.357 67.3138C184.271 67.1243 184.147 66.9542 183.994 66.8136C183.84 66.6729 183.66 66.5648 183.464 66.4956C183.268 66.4265 183.059 66.3977 182.852 66.411H179.244V69.4309L182.843 69.4309Z" fill="#D9D9D9"/>
<path d="M196.346 58.7558L201.56 71.9182H198.852L198.053 69.9266H191.913L191.123 71.9182H188.406L193.629 58.7558H196.346ZM192.895 67.4389H197.071L194.987 62.1795L192.895 67.4389Z" fill="#D9D9D9"/>
<path d="M37.1671 25.3176H36.5625V27.7874H37.1671V25.3176Z" fill="#D9D9D9"/>
<path d="M38.7895 21.6088V22.5224H38.142V21.6088H37.1665V22.5482H36.5619V21.6088H35.614V22.5224H34.9665V21.6088H34.0547V22.8527H34.8827V30.6156H38.9178V22.8527H39.6735V21.6088H38.7895ZM37.5006 28.12H36.2066V24.982H37.5005L37.5006 28.12Z" fill="#D9D9D9"/>
<path d="M34.3024 23.155H33.6517V21.6447H32.4962V22.5232H31.8456V21.6447H30.9463V22.5232H30.2956V21.6447H29.4091V22.5232H28.7583V21.6447H27.8976V22.5232H27.2469V21.6447H26.3349V22.5232H25.6842V21.6447H25.4023V30.6694H34.3188L34.3024 23.155ZM32.7987 28.12H26.6141V24.982H32.7987V28.12Z" fill="#D9D9D9"/>
<path d="M32.4916 25.2895H26.9219V27.8126H32.4916V25.2895Z" fill="#D9D9D9"/>
<path d="M2.50863 27.7873H3.11328L3.11328 25.3175H2.50863L2.50863 27.7873Z" fill="#D9D9D9"/>
<path d="M0 21.6088V22.8527H0.755734V30.6156H4.79075V22.8527H5.6188V21.6088H4.70696V22.5224H4.05951V21.6088H3.11173V22.5482H2.50701V21.6088H1.53157V22.5224H0.884058V21.6088H0ZM2.17312 24.982H3.46708V28.12H2.17302L2.17312 24.982Z" fill="#D9D9D9"/>
<path d="M5.36328 30.6694H14.2797V21.6447H13.9979V22.5232H13.3473V21.6447H12.4352V22.5232H11.7845V21.6447H10.9236V22.5232H10.273V21.6447H9.38652V22.5232H8.73582V21.6447H7.83665V22.5232H7.18588V21.6447H6.03039V23.1551H5.37972L5.36328 30.6694ZM6.88344 24.982H13.0681V28.12H6.88344V24.982Z" fill="#D9D9D9"/>
<path d="M12.7573 25.2895H7.1875V27.8126H12.7573V25.2895Z" fill="#D9D9D9"/>
<path d="M2.96059 17.6314H2.65625V18.2344H2.96059V17.6314Z" fill="#D9D9D9"/>
<path d="M2.78951 18.4938L1.63672 21.2993H3.9809L2.78951 18.4938Z" fill="#D9D9D9"/>
<path d="M37.0192 17.6314H36.7148V18.2344H37.0192V17.6314Z" fill="#D9D9D9"/>
<path d="M36.8484 18.4938L35.6953 21.2993H38.0395L36.8484 18.4938Z" fill="#D9D9D9"/>
<path d="M18.623 9.91483H18.826L18.821 9.92714H20.8427L20.8377 9.91483H21.0786V8.39032H21.3738V7.7893H20.832L19.8307 5.43147L18.8616 7.7893H18.3281V8.39032H18.623V9.91483Z" fill="#D9D9D9"/>
<path d="M20.1343 4.27869L19.8934 3.50029H19.7782L19.5386 4.26904L18.9336 4.09599L19.8661 5.18155L20.7683 4.09599L20.1343 4.27869Z" fill="#D9D9D9"/>
<path d="M22.6858 12.6434H21.9964L21.1193 10.578H18.5535L17.7049 12.6434H16.9564L15.168 16.9953H24.5339L22.6858 12.6434ZM18.6416 16.3839H17.9907V14.5503H18.6416V16.3839ZM20.1764 16.3839H19.5255V14.5503H20.1764V16.3839ZM21.7063 16.3839H21.0553V14.5503H21.7062L21.7063 16.3839Z" fill="#D9D9D9"/>
<path d="M24.8562 17.6123V18.2284H24.2052V17.6123H23.3575V18.2284H22.7065V17.6123H21.7435V18.2284H21.0925V17.6123H20.2063V18.2284H19.5553V17.6123H18.6787V18.2284H18.0278V17.6123H17.1224V18.2284H16.4714V17.6123H15.6015V18.2284H14.9506V17.6123H14.0352V18.8561H14.7864V30.7353H24.8533V18.8561H25.6813V17.6123H24.8562ZM21.9358 21.6469V25.9935H17.7663V21.4991C17.7687 21.3994 17.78 21.3002 17.8001 21.2025C17.9409 20.7695 18.2152 20.3921 18.5836 20.1245C18.952 19.8569 19.3957 19.7128 19.8511 19.7128C20.3064 19.7128 20.7501 19.8569 21.1186 20.1245C21.487 20.3921 21.7613 20.7695 21.9021 21.2025C21.9222 21.3002 21.9335 21.3994 21.9358 21.4991L21.9358 21.6469Z" fill="#D9D9D9"/>
<path d="M19.8515 20.0202C19.4745 20.0051 19.1027 20.112 18.7913 20.325C18.4799 20.538 18.2455 20.8457 18.1228 21.2025C18.0941 21.3484 18.0778 21.4966 18.0742 21.6453V25.6861H21.6289V21.6453C21.6253 21.4966 21.609 21.3485 21.5802 21.2025C21.4576 20.8457 21.2232 20.538 20.9117 20.325C20.6003 20.112 20.2285 20.0051 19.8515 20.0202Z" fill="#D9D9D9"/>
</g>
<defs>
<clipPath id="clip0_1912_4338">
<rect width="201.558" height="72" fill="white"/>
</clipPath>
</defs>
</svg>
