<svg width="96" height="96" viewBox="0 0 96 96" fill="none" xmlns="http://www.w3.org/2000/svg">
<path d="M71.0999 0H16.9414V0.0817936V7.06346V53.7559L17.1039 61.6257L45.5415 78.5277L48.0724 80L49.3204 79.223L75.9121 62.724L78.1179 61.3511V53.0607V23.8721H71.0999V57.4133L47.9563 71.7797L23.9594 57.8339V7.06346H71.0999V23.9071H78.1179V7.06346V0H71.0999Z" fill="white"/>
<path d="M91.2965 68.9246L92.2362 14.1177H89.6913H85.1793H81.9632V21.1999H85.1793V64.3261L48.5467 87.6817L10.8225 65.0174V21.1999H14.2021V14.1177H10.8225H3.76562V21.1999V70.0786L48.5467 96L91.2965 68.9246Z" fill="#0C713F"/>
<path d="M48 42.3527H50.8235C50.4072 39.0503 49.9908 34.9718 49.5744 30.1174C48.7417 35.6937 48.2147 39.7721 48 42.3527Z" fill="#0C713F"/>
<path d="M58.0297 10.3528V13.5195H53.0745V10.3528H45.2218V13.5195H39.8527V10.3528H32V14.1365L32.0946 52.8175L48.953 63.9998L65.8824 52.9805V14.1365V13.5195V10.3528H58.0297Z" fill="#0C713F"/>
<path d="M78.1195 13.1765H71.5312V22.5883H78.1195V13.1765Z" fill="white"/>
<path d="M36.707 24.4707H40.0692L48.4862 39.5569L56.9033 24.4707H60.2364V47.0589H58.3351V25.316L49.4427 41.2475L52.6831 47.0589H50.7818L48.492 42.9616L46.2023 47.0589H44.3009L47.5413 41.2475L38.62 25.2866V47.0589H36.7186V24.4707H36.707Z" fill="white" stroke="white" stroke-miterlimit="10"/>
</svg>
